<?xml version="1.0" encoding="UTF-8" standalone="no"?>
<!-- Created with Inkscape (http://www.inkscape.org/) -->

<svg
   width="50mm"
   height="50mm"
   viewBox="0 0 50 50"
   version="1.1"
   id="svg45220"
   inkscape:version="1.1 (c68e22c387, 2021-05-23)"
   sodipodi:docname="pibrary_icon2.svg"
   xmlns:inkscape="http://www.inkscape.org/namespaces/inkscape"
   xmlns:sodipodi="http://sodipodi.sourceforge.net/DTD/sodipodi-0.dtd"
   xmlns="http://www.w3.org/2000/svg"
   xmlns:svg="http://www.w3.org/2000/svg">
  <sodipodi:namedview
     id="namedview45222"
     pagecolor="#ffffff"
     bordercolor="#111111"
     borderopacity="1"
     inkscape:pageshadow="0"
     inkscape:pageopacity="0"
     inkscape:pagecheckerboard="1"
     inkscape:document-units="mm"
     showgrid="false"
     showguides="false"
     inkscape:zoom="2.8284272"
     inkscape:cx="101.46982"
     inkscape:cy="72.301666"
     inkscape:window-width="2560"
     inkscape:window-height="1051"
     inkscape:window-x="-9"
     inkscape:window-y="-9"
     inkscape:window-maximized="1"
     inkscape:current-layer="layer5" />
  <defs
     id="defs45217">
    <rect
       x="101.57371"
       y="156.26724"
       width="513.07745"
       height="421.92154"
       id="rect47153" />
  </defs>
  <g
     inkscape:groupmode="layer"
     id="layer5"
     inkscape:label="四角"
     style="display:inline">
    <path
       style="display:inline;fill:#29b6f6;fill-opacity:1;stroke-width:0.707107"
       d="M 40.242949,178.86185 C 28.743125,176.13668 19.351953,168.83903 13.806842,158.31901 9.1797661,149.54065 9.2144243,150.02024 9.2028399,94.610335 9.1958655,61.250035 9.448837,43.370669 9.9631981,40.870221 12.994379,26.134832 26.134832,12.994379 40.870221,9.9631981 43.370669,9.448837 61.250035,9.1958655 94.610335,9.2028399 c 55.650635,0.011635 54.853385,-0.047744 64.062225,4.7713051 9.64507,5.047329 17.14332,14.577983 19.85924,25.242067 1.56473,6.143928 1.59155,104.790908 0.0301,110.658368 -3.67049,13.79248 -14.89484,25.01683 -28.68732,28.68732 -3.21468,0.85549 -12.45365,1.01601 -55.475824,0.9638 -28.390337,-0.0344 -52.76045,-0.33318 -54.155806,-0.66385 z"
       id="path67870"
       transform="scale(0.26458333)" />
  </g>
  <g
     inkscape:groupmode="layer"
     id="layer1"
     inkscape:label="pi 塗りつぶし"
     style="display:inline">
    <path
       style="display:inline;fill:#ffffff;stroke-width:0.353553"
       d="m 64.911009,152.33574 c -0.120412,-2.40551 -0.54463,-14.79072 -0.942706,-27.5227 -0.398076,-12.73197 -0.788245,-23.21351 -0.867041,-23.29231 -0.0788,-0.0788 -3.719727,-0.40516 -8.090957,-0.72526 -4.371231,-0.3201 -8.031004,-0.66531 -8.132829,-0.76714 -0.101826,-0.101823 0.390191,-2.364727 1.093371,-5.028674 l 1.278508,-4.843544 h 6.895549 6.895549 l -0.215515,-4.286329 c -0.118533,-2.35748 -0.293522,-4.364337 -0.388865,-4.45968 -0.145346,-0.145346 -3.059459,0.04203 -16.605433,1.067742 l -1.015184,0.07687 -1.666135,-6.010408 C 42.232946,73.238583 41.37418,70.096377 41.240953,69.561628 L 40.99872,68.589356 H 51.64608 62.29344 L 62.088512,64.965434 C 61.975802,62.972277 61.799193,57.602685 61.696048,53.033007 61.592903,48.46333 61.41396,42.809076 61.298396,40.467998 l -0.210115,-4.256505 36.618077,-1.914141 c 20.139942,-1.052778 36.709082,-1.82314 36.820302,-1.711916 0.11123,0.111225 -0.88452,8.217833 -2.21277,18.014685 l -2.41499,17.812458 9.14193,0.0943 c 8.47968,0.08747 9.12919,0.138696 8.966,0.707107 -0.0968,0.337046 -0.44322,2.398909 -0.7699,4.581924 l -0.59396,3.969118 -1.1082,0.174761 c -1.12297,0.177088 -15.49925,1.256168 -16.73559,1.256168 -0.60055,0 -0.73609,0.535344 -1.27561,5.038136 -0.33201,2.770975 -0.60236,5.374687 -0.60078,5.786028 0.003,0.73676 0.14629,0.751747 9.6372,1.006779 5.29888,0.142387 9.69874,0.321023 9.77746,0.39697 0.13076,0.126148 -1.08508,4.599991 -2.82624,10.3995 l -0.68994,2.2981 -8.65036,-0.50541 c -4.7577,-0.27799 -8.73965,-0.41614 -8.84878,-0.30701 -0.10912,0.10913 -1.74626,11.55305 -3.63807,25.43093 l -3.43966,25.23252 -2.64205,0.21895 c -1.45312,0.12043 -3.8095,0.23975 -5.23638,0.26517 l -2.59434,0.0462 0.2038,-1.32583 c 0.40271,-2.61985 5.53643,-51.0967 5.42315,-51.20997 -0.16438,-0.1644 -31.515748,-1.09361 -31.71698,-0.94005 -0.130302,0.0994 4.065896,45.85276 4.842183,52.79677 l 0.180991,1.61902 -7.731884,0.41939 c -4.252536,0.23066 -9.106874,0.51565 -10.787417,0.63331 L 65.12994,156.7094 Z M 101.89884,90.735282 c 8.11136,-0.239504 14.81175,-0.507572 14.88977,-0.595705 0.078,-0.08813 0.23094,-2.586502 0.33984,-5.551931 l 0.198,-5.391689 -2.0063,-0.0069 c -2.19785,-0.0075 -35.55629,0.793247 -35.654727,0.855893 -0.03348,0.02128 0.160581,2.424347 0.431233,5.340095 0.270656,2.915751 0.496916,5.420688 0.502806,5.566528 0.01393,0.345238 3.469525,0.310141 21.299378,-0.216325 z m 0.62058,-23.055796 c 8.84159,-0.297628 16.12286,-0.588384 16.18059,-0.646123 0.0868,-0.08684 1.48446,-12.534406 1.50249,-13.381637 0.003,-0.145841 -9.80294,-0.265165 -21.791206,-0.265165 h -21.79686 l 0.228272,3.447145 c 0.12555,1.89593 0.229096,5.332858 0.230103,7.637617 l 0.0018,4.190473 4.684582,-0.220582 c 2.576521,-0.121322 11.91861,-0.464096 20.760199,-0.761728 z"
       id="path981"
       transform="scale(0.26458333)" />
  </g>
</svg>
